<svg preserveAspectRatio="none" overflow="visible" style="display: block;" width="22" height="22" viewBox="0 0 22 22" fill="none" xmlns="http://www.w3.org/2000/svg">
<g id="Search" clip-path="url(#clip0_0_4)">
<path id="Vector" d="M9.60137 1.83069C5.31625 1.83072 1.82048 5.32472 1.82069 9.61013C1.82067 13.8953 5.31644 17.3875 9.60183 17.3872C11.4189 17.3872 13.0899 16.7545 14.4161 15.7043L18.6143 19.9011C18.9727 20.2588 19.5529 20.2595 19.9105 19.9011C20.2676 19.5433 20.2676 18.9627 19.9105 18.6049L15.7106 14.4063C16.7523 13.0828 17.3792 11.4188 17.3792 9.60985C17.3792 5.32467 13.8867 1.8305 9.60137 1.83069ZM9.60138 3.66404C12.8957 3.66402 15.5454 6.31552 15.5456 9.60968C15.5456 12.904 12.8959 15.5537 9.60154 15.5537C6.30722 15.5537 3.65396 12.9041 3.65372 9.60997C3.65374 6.31563 6.30728 3.66428 9.60138 3.66404Z" fill="#00C6A9"/>
</g>
<defs>
<clipPath id="clip0_0_4">
<rect width="22" height="22" fill="white"/>
</clipPath>
</defs>
</svg>
